<svg width="960" height="639" xmlns="http://www.w3.org/2000/svg" xmlns:xlink="http://www.w3.org/1999/xlink" overflow="hidden"><defs><clipPath id="clip0"><rect x="0" y="0" width="960" height="639"/></clipPath><clipPath id="clip1"><rect x="-7" y="-8" width="944" height="638"/></clipPath><clipPath id="clip2"><rect x="71" y="31" width="841" height="570"/></clipPath><clipPath id="clip3"><rect x="71" y="31" width="841" height="570"/></clipPath><clipPath id="clip4"><rect x="71" y="31" width="841" height="570"/></clipPath><clipPath id="clip5"><rect x="71" y="31" width="841" height="570"/></clipPath><clipPath id="clip6"><rect x="-7" y="-8" width="944" height="638"/></clipPath><clipPath id="clip7"><rect x="-7" y="-8" width="944" height="638"/></clipPath><clipPath id="clip8"><rect x="-7" y="-8" width="944" height="638"/></clipPath><clipPath id="clip9"><rect x="-7" y="-8" width="944" height="638"/></clipPath><clipPath id="clip10"><rect x="-7" y="-8" width="944" height="638"/></clipPath><clipPath id="clip11"><rect x="-7" y="-8" width="944" height="638"/></clipPath><clipPath id="clip12"><rect x="-7" y="-8" width="944" height="638"/></clipPath><clipPath id="clip13"><rect x="-7" y="-8" width="944" height="638"/></clipPath><clipPath id="clip14"><rect x="-7" y="-8" width="944" height="638"/></clipPath><clipPath id="clip15"><rect x="-7" y="-8" width="944" height="638"/></clipPath><clipPath id="clip16"><rect x="-7" y="-8" width="944" height="638"/></clipPath><clipPath id="clip17"><rect x="-7" y="-8" width="944" height="638"/></clipPath><clipPath id="clip18"><rect x="-7" y="-8" width="944" height="638"/></clipPath><clipPath id="clip19"><rect x="-7" y="-8" width="944" height="638"/></clipPath><clipPath id="clip20"><rect x="-7" y="-8" width="944" height="638"/></clipPath><clipPath id="clip21"><rect x="-7" y="-8" width="944" height="638"/></clipPath><clipPath id="clip22"><rect x="-7" y="-8" width="944" height="638"/></clipPath><clipPath id="clip23"><rect x="-7" y="-8" width="944" height="638"/></clipPath><clipPath id="clip24"><rect x="-7" y="-8" width="944" height="638"/></clipPath><clipPath id="clip25"><rect x="-7" y="-8" width="944" height="638"/></clipPath><clipPath id="clip26"><rect x="-7" y="-8" width="944" height="638"/></clipPath><clipPath id="clip27"><rect x="-7" y="-8" width="944" height="638"/></clipPath><clipPath id="clip28"><rect x="-7" y="-8" width="944" height="638"/></clipPath><clipPath id="clip29"><rect x="-7" y="-8" width="944" height="638"/></clipPath><clipPath id="clip30"><rect x="-7" y="-8" width="944" height="638"/></clipPath><clipPath id="clip31"><rect x="-7" y="-8" width="944" height="638"/></clipPath><clipPath id="clip32"><rect x="-7" y="-8" width="944" height="638"/></clipPath><clipPath id="clip33"><rect x="-7" y="-8" width="944" height="638"/></clipPath><clipPath id="clip34"><rect x="-7" y="-8" width="944" height="638"/></clipPath><clipPath id="clip35"><rect x="-7" y="-8" width="944" height="638"/></clipPath><clipPath id="clip36"><rect x="-7" y="-8" width="944" height="638"/></clipPath><clipPath id="clip37"><rect x="-7" y="-8" width="944" height="638"/></clipPath></defs><g clip-path="url(#clip0)"><rect x="0" y="0" width="960" height="639" fill="#FFFFFF" transform="scale(1 1.00052)"/><g clip-path="url(#clip1)"><path d="M0 0 840 0.000104987" stroke="#000000" stroke-width="1.33344" stroke-linejoin="round" stroke-miterlimit="10" fill="none" fill-rule="evenodd" transform="matrix(1 0 -0 1.00052 71.5001 600.813)"/></g><g clip-path="url(#clip2)"><path d="M0 20 12 19 24 19 36 19 49 18 61 14 73 12 85 10 97 8 109 8 122 7 134 5 146 3 158 1 170 0 182 2 195 6 207 6 219 5 231 4 243 4 256 2 268 2 280 9 292 3 304 5 316 6 329 4 341 4 353 8 365 8 377 9 389 9 402 7 414 6 426 6 438 7 450 7 463 7 475 8 487 7 499 9 511 10 523 10 536 9 548 9 560 10 572 10 584 12 596 14 609 15 621 15 633 17 645 17 657 17 669 17 682 14 694 21 706 22 718 20 730 33 743 129 755 94 767 91 779 106 791 75 803 65 816 59 828 54 840 49" stroke="#F2CFB9" stroke-width="4.00031" stroke-linecap="round" stroke-linejoin="round" stroke-miterlimit="10" fill="none" transform="matrix(1 0 -0 1.00052 72 452.236)"/></g><g clip-path="url(#clip3)"><path d="M0 5 12 4 24 4 36 4 49 5 61 4 73 5 85 4 97 4 109 4 122 2 134 2 146 2 158 2 170 0 182 2 195 3 207 0 219 5 231 3 243 3 256 3 268 6 280 9 292 7 304 10 316 10 329 10 341 9 353 12 365 12 377 11 389 14 402 11 414 11 426 10 438 12 450 13 463 12 475 12 487 13 499 15 511 16 523 16 536 16 548 16 560 16 572 17 584 17 596 18 609 19 621 21 633 22 645 20 657 22 669 19 682 21 694 24 706 23 718 24 730 35 743 103 755 73 767 75 779 85 791 66 803 54 816 50 828 48 840 47" stroke="#E49F73" stroke-width="4.00031" stroke-linecap="round" stroke-linejoin="round" stroke-miterlimit="10" fill="none" transform="matrix(1 0 -0 1.00052 72 481.251)"/></g><g clip-path="url(#clip4)"><path d="M0 64 12 63 24 66 36 54 49 51 61 51 73 48 85 45 97 41 109 31 122 29 134 28 146 24 158 21 170 18 182 20 195 22 207 18 219 20 231 19 243 21 256 18 268 17 280 14 292 14 304 11 316 12 329 9 341 8 353 12 365 8 377 10 389 14 402 6 414 4 426 4 438 0 450 7 463 4 475 4 487 8 499 9 511 13 523 14 536 18 548 17 560 21 572 20 584 19 596 20 609 21 621 21 633 22 645 24 657 25 669 24 682 23 694 26 706 29 718 32 730 55 743 215 755 149 767 144 779 175 791 120 803 105 816 90 828 84 840 68" stroke="#0082CA" stroke-width="4.00031" stroke-linecap="round" stroke-linejoin="round" stroke-miterlimit="10" fill="none" transform="matrix(1 0 -0 1.00052 72 336.175)"/></g><g clip-path="url(#clip5)"><path d="M0 70 12 68 24 71 36 58 49 56 61 50 73 47 85 41 97 35 109 24 122 20 134 17 146 10 158 6 170 0 182 6 195 13 207 6 219 12 231 8 243 9 256 6 268 7 280 14 292 6 304 7 316 9 329 5 341 2 353 13 365 9 377 12 389 19 402 5 414 3 426 1 438 0 450 9 463 5 475 6 487 9 499 14 511 20 523 21 536 24 548 24 560 28 572 29 584 29 596 33 609 37 621 38 633 43 645 42 657 46 669 41 682 40 694 53 706 56 718 58 730 105 743 429 755 297 767 292 779 347 791 243 803 206 816 180 828 168 840 145" stroke="#006853" stroke-width="4.00031" stroke-linecap="round" stroke-linejoin="round" stroke-miterlimit="10" fill="none" transform="matrix(1 0 -0 1.00052 72 87.0454)"/></g><g clip-path="url(#clip6)"><text font-family="Arial,Arial_MSFontService,sans-serif" font-weight="400" font-size="16" transform="matrix(1 0 0 1.00052 49.1957 605)">0</text></g><g clip-path="url(#clip7)"><text font-family="Arial,Arial_MSFontService,sans-serif" font-weight="400" font-size="16" transform="matrix(1 0 0 1.00052 31.3956 562)">100</text></g><g clip-path="url(#clip8)"><text font-family="Arial,Arial_MSFontService,sans-serif" font-weight="400" font-size="16" transform="matrix(1 0 0 1.00052 31.3956 518)">200</text></g><g clip-path="url(#clip9)"><text font-family="Arial,Arial_MSFontService,sans-serif" font-weight="400" font-size="16" transform="matrix(1 0 0 1.00052 31.3956 474)">300</text></g><g clip-path="url(#clip10)"><text font-family="Arial,Arial_MSFontService,sans-serif" font-weight="400" font-size="16" transform="matrix(1 0 0 1.00052 31.3956 430)">400</text></g><g clip-path="url(#clip11)"><text font-family="Arial,Arial_MSFontService,sans-serif" font-weight="400" font-size="16" transform="matrix(1 0 0 1.00052 31.3956 386)">500</text></g><g clip-path="url(#clip12)"><text font-family="Arial,Arial_MSFontService,sans-serif" font-weight="400" font-size="16" transform="matrix(1 0 0 1.00052 31.3956 343)">600</text></g><g clip-path="url(#clip13)"><text font-family="Arial,Arial_MSFontService,sans-serif" font-weight="400" font-size="16" transform="matrix(1 0 0 1.00052 31.3956 299)">700</text></g><g clip-path="url(#clip14)"><text font-family="Arial,Arial_MSFontService,sans-serif" font-weight="400" font-size="16" transform="matrix(1 0 0 1.00052 31.3956 255)">800</text></g><g clip-path="url(#clip15)"><text font-family="Arial,Arial_MSFontService,sans-serif" font-weight="400" font-size="16" transform="matrix(1 0 0 1.00052 31.3956 211)">900</text></g><g clip-path="url(#clip16)"><text font-family="Arial,Arial_MSFontService,sans-serif" font-weight="400" font-size="16" transform="matrix(1 0 0 1.00052 18.0488 167)">1,000</text></g><g clip-path="url(#clip17)"><text font-family="Arial,Arial_MSFontService,sans-serif" font-weight="400" font-size="16" transform="matrix(1 0 0 1.00052 18.0488 124)">1,100</text></g><g clip-path="url(#clip18)"><text font-family="Arial,Arial_MSFontService,sans-serif" font-weight="400" font-size="16" transform="matrix(1 0 0 1.00052 18.0488 80)">1,200</text></g><g clip-path="url(#clip19)"><text font-family="Arial,Arial_MSFontService,sans-serif" font-weight="400" font-size="16" transform="matrix(1 0 0 1.00052 18.0488 36)">1,300</text></g><g clip-path="url(#clip20)"><text font-family="Arial,Arial_MSFontService,sans-serif" font-weight="400" font-size="16" transform="matrix(1 0 0 1.00052 54.0646 625)">2005</text></g><g clip-path="url(#clip21)"><text font-family="Arial,Arial_MSFontService,sans-serif" font-weight="400" font-size="16" transform="matrix(1 0 0 1.00052 102.765 625)">2006</text></g><g clip-path="url(#clip22)"><text font-family="Arial,Arial_MSFontService,sans-serif" font-weight="400" font-size="16" transform="matrix(1 0 0 1.00052 151.464 625)">2007</text></g><g clip-path="url(#clip23)"><text font-family="Arial,Arial_MSFontService,sans-serif" font-weight="400" font-size="16" transform="matrix(1 0 0 1.00052 200.164 625)">2008</text></g><g clip-path="url(#clip24)"><text font-family="Arial,Arial_MSFontService,sans-serif" font-weight="400" font-size="16" transform="matrix(1 0 0 1.00052 248.864 625)">2009</text></g><g clip-path="url(#clip25)"><text font-family="Arial,Arial_MSFontService,sans-serif" font-weight="400" font-size="16" transform="matrix(1 0 0 1.00052 297.564 625)">2010</text></g><g clip-path="url(#clip26)"><text font-family="Arial,Arial_MSFontService,sans-serif" font-weight="400" font-size="16" transform="matrix(1 0 0 1.00052 346.264 625)">2011</text></g><g clip-path="url(#clip27)"><text font-family="Arial,Arial_MSFontService,sans-serif" font-weight="400" font-size="16" transform="matrix(1 0 0 1.00052 394.964 625)">2012</text></g><g clip-path="url(#clip28)"><text font-family="Arial,Arial_MSFontService,sans-serif" font-weight="400" font-size="16" transform="matrix(1 0 0 1.00052 443.664 625)">2013</text></g><g clip-path="url(#clip29)"><text font-family="Arial,Arial_MSFontService,sans-serif" font-weight="400" font-size="16" transform="matrix(1 0 0 1.00052 492.364 625)">2014</text></g><g clip-path="url(#clip30)"><text font-family="Arial,Arial_MSFontService,sans-serif" font-weight="400" font-size="16" transform="matrix(1 0 0 1.00052 541.064 625)">2015</text></g><g clip-path="url(#clip31)"><text font-family="Arial,Arial_MSFontService,sans-serif" font-weight="400" font-size="16" transform="matrix(1 0 0 1.00052 589.764 625)">2016</text></g><g clip-path="url(#clip32)"><text font-family="Arial,Arial_MSFontService,sans-serif" font-weight="400" font-size="16" transform="matrix(1 0 0 1.00052 638.464 625)">2017</text></g><g clip-path="url(#clip33)"><text font-family="Arial,Arial_MSFontService,sans-serif" font-weight="400" font-size="16" transform="matrix(1 0 0 1.00052 687.164 625)">2018</text></g><g clip-path="url(#clip34)"><text font-family="Arial,Arial_MSFontService,sans-serif" font-weight="400" font-size="16" transform="matrix(1 0 0 1.00052 735.864 625)">2019</text></g><g clip-path="url(#clip35)"><text font-family="Arial,Arial_MSFontService,sans-serif" font-weight="400" font-size="16" transform="matrix(1 0 0 1.00052 784.564 625)">2020</text></g><g clip-path="url(#clip36)"><text font-family="Arial,Arial_MSFontService,sans-serif" font-weight="400" font-size="16" transform="matrix(1 0 0 1.00052 833.264 625)">2021</text></g><g clip-path="url(#clip37)"><text font-family="Arial,Arial_MSFontService,sans-serif" font-weight="400" font-size="16" transform="matrix(1 0 0 1.00052 881.964 625)">2022</text></g><text fill="#0082CA" font-family="Arial,Arial_MSFontService,sans-serif" font-weight="700" font-size="16" transform="matrix(1 0 0 1.00052 675.905 333)">London<tspan fill="#E49F73" x="-50.7921" y="185.903">Metropolitan areas</tspan><tspan fill="#F2CFB9" x="-83.7687" y="98.9484">Non</tspan><tspan fill="#F2CFB9" x="-52.6687" y="98.9484">-</tspan><tspan fill="#F2CFB9" x="-47.342" y="98.9484">metropolitan areas</tspan><tspan fill="#007662" x="-2.51556" y="-229.88">England</tspan><tspan fill="#000000" font-weight="400" x="-648.327" y="-319.833">Passenger journeys on local bus services (million)</tspan></text><path d="M0 0 1.07475 495.888" stroke="#000000" stroke-miterlimit="8" stroke-dasharray="8 3" fill="none" fill-rule="evenodd" transform="matrix(-1 -8.74228e-08 8.74684e-08 -1.00052 817.575 597.7)"/><text font-family="Arial,Arial_MSFontService,sans-serif" font-weight="400" font-size="16" transform="matrix(1 0 0 1.00052 766.864 64)">Coronavirus<tspan x="90.3333" y="0">(COVID</tspan>-<tspan x="57.8333" y="18.9901">19) lockdown </tspan><tspan x="77.3333" y="37.9802">introduced</tspan></text></g></svg>