<?xml version="1.0" encoding="utf-8"?>
<!-- Generator: Adobe Illustrator 16.0.3, SVG Export Plug-In . SVG Version: 6.00 Build 0)  -->
<!DOCTYPE svg PUBLIC "-//W3C//DTD SVG 1.1//EN" "http://www.w3.org/Graphics/SVG/1.1/DTD/svg11.dtd">
<svg version="1.1" id="Layer_1" xmlns="http://www.w3.org/2000/svg" xmlns:xlink="http://www.w3.org/1999/xlink" x="0px" y="0px"
	 width="595.275px" height="841.89px" viewBox="0 0 595.275 841.89" enable-background="new 0 0 595.275 841.89"
	 xml:space="preserve">
<g>
	<g>
		<path fill="#4D3B56" stroke="#4D3B56" stroke-width="1.729" d="M159.7,297.013c0-7.787,3.593-11.806,11.465-11.806h16.773v2.65
			h-16.345c-6.247,0-9.327,2.395-9.327,8.817v19.506c0,6.937,3.85,9.591,10.354,9.591h15.49v2.566h-15.659
			c-8.044,0-12.751-3.256-12.751-11.813V297.013z"/>
		<path fill="#4D3B56" stroke="#4D3B56" stroke-width="1.729" d="M195.725,310.879c0-6.849,4.278-11.3,11.212-11.3h21.732v-2.823
			c0-5.814-3.504-8.898-9.238-8.898h-23.622v-2.65h22.339c8.213,0,13.007,3.505,13.007,12.063V316.7
			c0,7.187-3.425,11.638-10.953,11.638h-13.009c-6.761,0-11.468-4.106-11.468-11.043V310.879z M207.021,325.771h13.265
			c5.394,0,8.303-3.087,8.303-8.477v-15.23h-21.739c-5.306,0-8.558,3.594-8.558,8.727v6.335
			C198.292,322.428,201.715,325.771,207.021,325.771z"/>
		<path fill="#4D3B56" stroke="#4D3B56" stroke-width="1.729" d="M250.923,285.207h20.795v2.65h-20.714
			c-4.532,0-9.239,1.287-9.239,6.758v2.742c0,6.335,4.106,7.699,9.672,7.699h10.354c8.813,0,9.672,5.396,9.672,12.414
			c0,7.268-3.168,10.867-10.442,10.867h-21.564v-2.566h21.564c5.39,0,7.788-2.654,7.788-8.044c0-5.653-0.426-9.929-7.274-9.929
			h-10.185c-7.187,0-12.063-2.485-12.063-10.354v-2.742C239.287,287.773,244.757,285.207,250.923,285.207z"/>
		<path fill="#4D3B56" stroke="#4D3B56" stroke-width="1.729" d="M279.843,310.879c0-6.849,4.282-11.3,11.212-11.3h21.742v-2.823
			c0-5.814-3.514-8.898-9.246-8.898h-23.62v-2.65h22.336c8.219,0,13.008,3.505,13.008,12.063V316.7
			c0,7.187-3.424,11.638-10.955,11.638h-13.008c-6.761,0-11.469-4.106-11.469-11.043V310.879z M291.143,325.771h13.265
			c5.389,0,8.301-3.087,8.301-8.477v-15.23h-21.735c-5.309,0-8.558,3.594-8.558,8.727v6.335
			C282.417,322.428,285.834,325.771,291.143,325.771z"/>
	</g>
	<g>
		<defs>
			<path id="SVGID_1_" d="M319.125,255.746c0,8.085-6.615,14.703-14.703,14.703H172.453c-8.085,0-14.703-6.618-14.703-14.703
				V123.777c0-8.087,6.618-14.703,14.703-14.703h131.969c8.088,0,14.703,6.616,14.703,14.703V255.746z"/>
		</defs>
		<use xlink:href="#SVGID_1_"  overflow="visible" fill="#4D3B56"/>
		<clipPath id="SVGID_2_">
			<use xlink:href="#SVGID_1_"  overflow="visible"/>
		</clipPath>
		<g clip-path="url(#SVGID_2_)">
			<circle fill="#FFFFFF" stroke="#4D3B56" stroke-width="1.729" cx="190.825" cy="143.26" r="12.622"/>
			<path fill="#FFFFFF" stroke="#4D3B56" stroke-width="1.729" d="M266.458,169.877c0,8.368-6.784,15.155-15.159,15.155
				c-8.372,0-15.156-6.787-15.156-15.155c0-8.375,6.784-15.163,15.156-15.163C259.673,154.714,266.458,161.502,266.458,169.877z"/>
			<circle fill="#FFFFFF" stroke="#4D3B56" stroke-width="1.729" cx="189.754" cy="167.753" r="14.855"/>
			<polyline fill="none" stroke="#FFFFFF" stroke-width="1.729" points="298.292,130.16 262.821,132.889 262.307,191.006 
				241.599,271.604 			"/>
			<polyline fill="none" stroke="#FFFFFF" stroke-width="1.729" points="262.821,132.889 251.298,169.873 190.825,143.26 
				237.351,120.154 			"/>
			<line fill="none" stroke="#FFFFFF" stroke-width="1.729" x1="290.106" y1="163.812" x2="302.838" y2="195.947"/>
			<polyline fill="none" stroke="#FFFFFF" stroke-width="1.729" points="189.754,167.753 152.768,244.153 241.599,271.604 
				202.185,218.384 			"/>
			<polyline fill="none" stroke="#FFFFFF" stroke-width="1.729" points="251.298,169.873 290.106,163.812 262.307,191.006 
				287.377,242.94 241.599,271.604 189.754,167.753 202.185,218.384 270.094,225.053 			"/>
			<path fill="none" stroke="#FFFFFF" stroke-width="1.2968" d="M241.599,271.604"/>
			<circle fill="#FFFFFF" stroke="#4D3B56" stroke-width="1.729" cx="302.84" cy="195.947" r="8.049"/>
			<circle fill="#FFFFFF" stroke="#4D3B56" stroke-width="1.729" cx="237.353" cy="120.154" r="7.029"/>
			<path fill="#FFFFFF" stroke="#4D3B56" stroke-width="1.729" d="M275.518,225.053c0,2.996-2.425,5.424-5.424,5.424
				c-2.992,0-5.423-2.428-5.423-5.424c0-2.995,2.431-5.423,5.423-5.423C273.093,219.63,275.518,222.058,275.518,225.053z"/>
			<path fill="#FFFFFF" stroke="#4D3B56" stroke-width="1.729" d="M279.982,191.006c0-9.763-7.915-17.678-17.675-17.678
				c-9.763,0-17.679,7.915-17.679,17.678c0,9.764,7.916,17.676,17.679,17.676C272.067,208.682,279.982,200.77,279.982,191.006z"/>
			<circle fill="#FFFFFF" stroke="#4D3B56" stroke-width="1.729" cx="241.598" cy="271.604" r="12.733"/>
			<circle fill="#FFFFFF" stroke="#4D3B56" stroke-width="1.729" cx="287.378" cy="242.94" r="11.218"/>
			<path fill="#FFFFFF" stroke="#4D3B56" stroke-width="1.729" d="M274.947,132.885c0,6.7-5.43,12.13-12.126,12.13
				c-6.7,0-12.127-5.431-12.127-12.13c0-6.693,5.427-12.124,12.127-12.124C269.517,120.762,274.947,126.192,274.947,132.885z"/>
			<path fill="#FFFFFF" stroke="#4D3B56" stroke-width="1.729" d="M167.016,244.153c0,7.871-6.379,14.247-14.248,14.247
				c-7.87,0-14.25-6.376-14.25-14.247c0-7.872,6.38-14.248,14.25-14.248C160.637,229.905,167.016,236.281,167.016,244.153z"/>
			<circle fill="#FFFFFF" stroke="#4D3B56" stroke-width="1.729" cx="298.292" cy="130.16" r="10.61"/>
			<path fill="#FFFFFF" stroke="#4D3B56" stroke-width="1.729" d="M305.266,163.812c0,8.372-6.788,15.159-15.16,15.159
				c-8.371,0-15.159-6.787-15.159-15.159c0-8.375,6.788-15.159,15.159-15.159C298.478,148.652,305.266,155.437,305.266,163.812z"/>
			<path fill="#FFFFFF" stroke="#4D3B56" stroke-width="1.729" d="M214.918,218.384c0,7.03-5.701,12.73-12.733,12.73
				s-12.732-5.7-12.732-12.73c0-7.034,5.7-12.735,12.732-12.735S214.918,211.35,214.918,218.384z"/>
		</g>
	</g>
</g>
</svg>
